<?xml version="1.0" encoding="utf-8"?>
<!-- Generator: Adobe Illustrator 25.0.1, SVG Export Plug-In . SVG Version: 6.00 Build 0)  -->
<svg version="1.1" id="Layer_1" xmlns="http://www.w3.org/2000/svg" xmlns:xlink="http://www.w3.org/1999/xlink" x="0px" y="0px"
	 viewBox="0 0 394 333" style="enable-background:new 0 0 394 333;" xml:space="preserve">
<style type="text/css">
	.st0{fill:#FFD166;}
</style>
<g id="bottom">
	<polygon class="st0" points="132.43,237.15 133.45,327.43 163.12,327.43 163.43,234.15 153.15,235.14 145.43,244.15 148.23,235.62 
			"/>
	<polygon class="st0" points="194.43,230.15 195.58,327.43 225.24,327.43 225.24,248.36 267.22,248.36 267.43,231.15 259.43,222.15 
		249.43,222.15 225.43,225.15 	"/>
	<polygon class="st0" points="330.43,215.15 322.43,209.97 307.43,226.15 316.23,210.9 300.43,213.15 301.36,327.43 331.03,327.43 
		331.03,248.36 373.01,248.36 373.01,221.55 330.43,221.15 	"/>
	<path class="st0" d="M73.12,243.11l0.31,40.04c0,5.54-0.9,9.89-4.07,12.93c-3.17,3.04-7.65,4.56-13.43,4.56H40.54l-0.11-54.48
		l-30,3l0.44,78.29h46.46c14.18,0,25.47-4.06,33.86-12.2c8.4-8.13,12.59-18.99,12.59-32.57l-0.36-42.52L73.12,243.11z"/>
</g>
<g id="top">
	<polygon class="st0" points="163.12,216.63 163.12,139.75 133.45,139.75 132.43,221.15 	"/>
	<polygon class="st0" points="278.42,166.56 278.42,139.75 195.58,139.75 194.58,212.83 220.43,210.15 225.43,203.15 225.24,166.56 
			"/>
	<polygon class="st0" points="367.8,166.56 384.2,155.55 384.2,139.75 301.36,139.75 300.43,202.15 330.43,199.15 331.03,166.56 	
		"/>
	<path class="st0" d="M103.79,225.7v-41.18c0-13.58-4.2-24.43-12.59-32.57c-8.4-8.13-19.69-12.2-33.86-12.2H10.88l-0.44,101.4l30-5
		l0.11-69.59h15.39c5.78,0,10.26,1.52,13.43,4.56c3.17,3.04,4.76,7.33,4.07,13.87v46.2L103.79,225.7z"/>
</g>
<g id="debris">
	<polygon class="st0" points="343.9,194.74 348.69,183.55 359.49,185.52 	"/>
	<polygon class="st0" points="339.74,202.63 342.51,209.15 333.97,209.15 	"/>
	<polygon class="st0" points="387.45,156.76 382.66,161.55 390.65,159.95 	"/>
	<polygon class="st0" points="370.17,167.62 365.88,171.14 370.97,171.61 	"/>
	<polygon class="st0" points="386.91,167.94 388.25,176.73 372.27,179.13 	"/>
	<polygon class="st0" points="219.3,221.25 215.88,216.88 212.61,223.76 	"/>
	<polygon class="st0" points="252.41,214.56 247.27,216.86 251.43,210.94 	"/>
	<polygon class="st0" points="247.78,205.28 240.4,200.07 230.38,215.49 	"/>
	<polygon class="st0" points="165.63,226.76 160.62,222.12 150.9,234.36 	"/>
	<polygon class="st0" points="273.12,218.77 270.91,231.23 265.02,221.12 	"/>
</g>
<g>
	<path class="st0" d="M9.81,132v-18.38c1.89,0.59,6.24,0.67,8.66,0.67c3.99,0,6.87-1.18,8.66-3.55c1.78-2.37,2.68-6.22,2.68-11.54
		V5.95h16.69v96.62c0,8.88-2.36,16.02-7.08,21.4c-4.72,5.39-11.34,8.83-19.21,8.83C16.42,132.8,13.17,133.18,9.81,132z"/>
	<path class="st0" d="M70.73,123.97c-4.83-5.39-7.24-12.4-7.24-21.05V5.95h16.69v96.98c0,3.55,0.87,6.34,2.6,8.35
		c1.73,2.01,3.96,3.02,6.69,3.02c2.73,0,4.96-1,6.69-3.02c1.73-2.01,2.6-4.8,2.6-8.35V5.95h16.37v96.98
		c0,8.64-2.36,15.66-7.08,21.05c-4.72,5.39-10.92,8.08-18.58,8.08C81.81,132.05,75.56,129.36,70.73,123.97z"/>
	<path class="st0" d="M132.76,5.95h18.42l21.25,83.48V5.95h16.37v124.33h-17.63l-22.04-79.57v79.57h-16.37V5.95z"/>
	<path class="st0" d="M242.48,44.67V34.19c0-3.91-0.89-6.93-2.68-9.06c-1.79-2.13-4.25-3.2-7.4-3.2s-5.62,1.07-7.4,3.2
		c-1.79,2.13-2.68,5.15-2.68,9.06v67.85c0,3.91,0.89,6.93,2.68,9.06c1.78,2.13,4.25,3.2,7.4,3.2s5.61-1.07,7.4-3.2
		c1.78-2.13,2.68-5.15,2.68-9.06V80.01h-10.08V62.25h26.76v39.79c0,9-2.47,16.25-7.4,21.76c-4.93,5.51-11.39,8.26-19.36,8.26
		c-7.98,0-14.43-2.75-19.36-8.26c-4.93-5.51-7.4-12.76-7.4-21.76V34.19c0-9,2.46-16.25,7.4-21.76c4.93-5.51,11.39-8.26,19.36-8.26
		c7.97,0,14.43,2.75,19.36,8.26c4.93,5.51,7.4,12.76,7.4,21.76v10.48H242.48z"/>
	<path class="st0" d="M275.38,5.95h16.69v106.57h29.75v17.76h-46.44V5.95z"/>
	<path class="st0" d="M334.73,5.95h47.39v17.76h-30.7v34.63h24.4v17.76h-24.4v36.41h30.7v17.76h-47.39V5.95z"/>
</g>
</svg>
