<?xml version="1.0" encoding="utf-8"?>
<!-- Generator: Adobe Illustrator 25.0.1, SVG Export Plug-In . SVG Version: 6.00 Build 0)  -->
<svg version="1.1" id="Layer_1" xmlns="http://www.w3.org/2000/svg" xmlns:xlink="http://www.w3.org/1999/xlink" x="0px" y="0px"
	 viewBox="0 0 136 120" style="enable-background:new 0 0 136 120;" xml:space="preserve">
<style type="text/css">
	.st0{fill:#FFD166;}
</style>
<g id="header_logo">
	<g>
		<path class="st0" d="M1.18,40.42l0.77-5.24c0.66,0.18,1.41,0.28,2.26,0.28c1.4,0,2.41-0.37,3.03-1.1
			c0.63-0.73,0.94-1.93,0.94-3.58V1.82h5.85v30c0,2.76-0.83,4.97-2.48,6.65c-1.65,1.67-3.86,2.51-6.62,2.51
			C3.61,40.97,2.36,40.78,1.18,40.42z"/>
		<path class="st0" d="M22.52,38.46c-1.69-1.67-2.54-3.85-2.54-6.53V1.82h5.85v30.11c0,1.1,0.3,1.97,0.91,2.59
			c0.61,0.63,1.39,0.94,2.34,0.94c0.96,0,1.74-0.31,2.34-0.94c0.61-0.62,0.91-1.49,0.91-2.59V1.82h5.73v30.11
			c0,2.68-0.83,4.86-2.48,6.53c-1.65,1.67-3.82,2.51-6.51,2.51C26.4,40.97,24.21,40.13,22.52,38.46z"/>
		<path class="st0" d="M44.25,1.82h6.45l7.44,25.92V1.82h5.73v38.6H57.7l-7.72-24.7v24.7h-5.73V1.82z"/>
		<path class="st0" d="M82.68,13.84v-3.25c0-1.21-0.31-2.15-0.94-2.81c-0.63-0.66-1.49-0.99-2.59-0.99c-1.1,0-1.97,0.33-2.59,0.99
			c-0.63,0.66-0.94,1.6-0.94,2.81v21.06c0,1.21,0.31,2.15,0.94,2.81c0.62,0.66,1.49,0.99,2.59,0.99c1.1,0,1.97-0.33,2.59-0.99
			c0.62-0.66,0.94-1.6,0.94-2.81v-6.84h-3.53V19.3h9.37v12.35c0,2.79-0.86,5.05-2.59,6.76c-1.73,1.71-3.99,2.56-6.78,2.56
			c-2.79,0-5.06-0.85-6.78-2.56c-1.73-1.71-2.59-3.96-2.59-6.76V10.58c0-2.79,0.86-5.05,2.59-6.75c1.73-1.71,3.99-2.56,6.78-2.56
			c2.79,0,5.05,0.85,6.78,2.56c1.73,1.71,2.59,3.96,2.59,6.75v3.25H82.68z"/>
		<path class="st0" d="M94.21,1.82h5.85V34.9h10.42v5.51H94.21V1.82z"/>
		<path class="st0" d="M114.99,1.82h16.6v5.51h-10.75v10.75h8.55v5.51h-8.55v11.3h10.75v5.51h-16.6V1.82z"/>
	</g>
	<g>
		<path class="st0" d="M2.02,48.42H18.6c5.06,0,9.09,1.52,12.09,4.55c3,3.03,4.5,7.08,4.5,12.14v36.56c0,5.06-1.5,9.11-4.5,12.14
			c-3,3.03-7.03,4.55-12.09,4.55H2.02V48.42z M18.11,108.35c2.06,0,3.66-0.56,4.79-1.7c1.13-1.13,1.7-2.73,1.7-4.8V64.9
			c0-2.06-0.57-3.66-1.7-4.79c-1.13-1.13-2.73-1.7-4.79-1.7h-5.49v49.95H18.11z"/>
		<path class="st0" d="M45.78,48.42h10.59v69.93H45.78V48.42z"/>
		<path class="st0" d="M67.95,48.42h29.57v9.99H78.54v20.48h14.98v9.99H78.54v29.47H67.95V48.42z"/>
		<path class="st0" d="M105.71,48.42h29.57v9.99H116.3v20.48h14.98v9.99H116.3v29.47h-10.59V48.42z"/>
	</g>
</g>
</svg>
